<?xml version="1.0"?><svg width="351.665" height="330.719" xmlns="http://www.w3.org/2000/svg">
 <title>Neon Green</title>
 <g>
  <title>Layer 1</title>
  <g id="g5" transform="rotate(-0.256504 176.019 164.653)">
   <path id="path7" fill="#00ff00" d="m172.23111,137.843857l0,13.876648c-12.53566,2.662582 -18.498627,14.160324 -14.898163,26.905029l-11.520096,6.910248c-49.34861,-68.044724 -145.202164,-13.065567 -116.99295,64.722351c-26.289797,-62.230133 16.393993,-120.230774 66.092651,-126.348015c-19.421127,-53.092354 11.889648,-114.567597 71.835022,-121.155194c-77.372658,14.140367 -76.634476,125.458974 5.483536,135.088933z"/>
   <path id="path9" fill="#00ff00" d="m149.349503,192.667145l11.751419,-6.938339c8.522232,9.772186 21.241333,9.303635 30.232315,-0.256485l11.61232,6.747086c-32.94841,77.72905 61.536011,135.133347 113.303864,71.254715c-39.552979,54.398224 -110.01088,45.595764 -140.040298,4.63736c-35.248917,43.747833 -102.962341,46.754822 -138.514305,-3.042328c50.660149,61.456177 144.55883,5.143005 111.654686,-72.402008z"/>
   <path id="path11" fill="#00ff00" d="m207.576614,185.174179l-11.752274,-6.938324c4.013443,-12.433899 -2.741806,-23.463974 -15.333298,-26.646759l-0.092133,-13.658264c82.297012,-9.684296 83.665298,-122.067764 3.688202,-135.977945c65.842743,7.831893 93.616867,74.635035 73.946762,121.710711c54.670898,9.34536 91.073547,67.812675 66.680176,124.199272c26.712463,-75.596558 -67.923492,-130.60199 -117.137436,-62.68869z"/>
   <path id="path13" fill="#00ff00" d="m127.369156,104.256035l14.843185,15.350227c20.326813,-15.859543 51.120987,-12.461075 68.401138,-0.396942l14.067825,-14.953285c-26.972977,-22.410896 -68.032486,-22.410896 -97.312149,0z"/>
   <path id="path15" fill="#00ff00" d="m258.443268,163.042404l-20.419876,5.472c3.267258,25.931732 -15.008026,51.505432 -33.8647,60.77832l5.628922,19.935867c32.463638,-12.683975 52.993423,-49.047638 48.655655,-86.186188z"/>
   <path id="path17" fill="#00ff00" d="m143.258942,249.002029l5.576614,-20.822189c-23.593185,-10.071243 -36.112007,-39.044373 -34.536415,-60.381393l-19.696754,-4.98262c-5.490631,35.093994 15.039078,71.458588 48.656555,86.186203z"/>
  </g>
 </g>
</svg>